<?xml version="1.0" standalone="no"?>
<!DOCTYPE svg PUBLIC "-//W3C//DTD SVG 20010904//EN"
 "http://www.w3.org/TR/2001/REC-SVG-20010904/DTD/svg10.dtd">
<svg version="1.0" xmlns="http://www.w3.org/2000/svg"
 width="597.000000pt" height="418.000000pt" viewBox="0 0 597.000000 418.000000"
 preserveAspectRatio="xMidYMid meet">
<metadata>
Created by potrace 1.16, written by Peter Selinger 2001-2019
</metadata>
<g transform="translate(0.000000,418.000000) scale(0.100000,-0.100000)"
fill="#000000" stroke="none">
<path d="M3509 3586 c-2 -3 -60 -6 -128 -7 -99 -2 -120 -5 -107 -14 9 -7 16
-21 16 -33 0 -19 -5 -20 -130 -19 -90 0 -127 4 -123 11 3 6 0 5 -8 -1 -7 -7
-20 -13 -30 -13 -12 0 -15 -6 -11 -25 5 -29 0 -31 -22 -9 -9 8 -16 11 -16 5 0
-6 9 -16 20 -23 34 -22 23 -28 -51 -28 -42 0 -68 4 -64 10 3 5 13 7 23 4 14
-5 14 -4 2 4 -22 17 -40 -5 -40 -49 0 -37 -12 -51 -25 -29 -3 6 -14 10 -23 9
-14 0 -13 -2 3 -9 14 -6 0 -9 -46 -9 -44 -1 -70 -6 -78 -15 -9 -10 -8 -15 4
-20 8 -3 15 -15 15 -27 0 -19 -2 -20 -17 -8 -14 12 -16 12 -8 0 6 -11 2 -13
-19 -9 -30 6 -41 -6 -38 -42 3 -21 -2 -26 -24 -28 -15 -1 -33 3 -40 9 -9 8
-11 5 -7 -10 4 -16 1 -19 -16 -16 -24 4 -29 -10 -5 -19 10 -4 13 -2 8 6 -4 7
-3 8 4 4 7 -4 12 -14 12 -22 0 -8 -4 -12 -10 -9 -6 4 -7 -1 -3 -10 4 -13 1
-16 -18 -13 -15 2 -23 9 -21 18 3 11 0 12 -8 4 -6 -6 -12 -25 -12 -42 -1 -17
-5 -29 -9 -26 -5 3 -6 -2 -3 -10 6 -15 -11 -22 -38 -17 -5 0 -8 -4 -8 -10 0
-5 -4 -7 -10 -4 -10 6 -14 -26 -10 -99 2 -36 0 -38 -23 -34 -29 6 -37 1 -54
-29 -8 -14 -9 -24 -3 -28 17 -10 11 -28 -6 -21 -13 5 -15 2 -11 -14 3 -11 1
-18 -4 -14 -9 5 -13 -9 -10 -33 1 -7 -3 -13 -10 -13 -6 0 -9 -6 -6 -14 3 -7 1
-18 -3 -22 -5 -5 -16 -52 -25 -104 -50 -309 26 -628 209 -875 200 -271 573
-455 951 -468 l70 -2 27 80 c14 44 65 192 112 330 47 137 86 251 86 252 0 1
123 4 274 5 l274 3 -131 263 -130 262 -138 0 -139 0 -19 -42 c-37 -83 -99
-224 -136 -308 -62 -143 -109 -245 -114 -251 -11 -12 -455 -19 -545 -9 -306
35 -517 250 -533 541 -8 144 16 235 102 390 8 14 38 48 67 75 29 27 53 52 53
56 0 3 4 10 9 15 5 5 6 3 2 -4 -11 -19 2 -16 26 7 12 11 29 20 37 20 14 0 14
2 1 11 -12 9 -12 10 4 5 17 -6 59 3 106 21 26 11 53 11 588 12 287 0 522 2
522 3 0 12 -90 228 -135 326 -14 29 -25 55 -25 58 0 18 -44 103 -51 98 -5 -3
-9 2 -9 11 0 9 -4 13 -10 10 -5 -3 -19 -1 -30 5 -16 8 -18 8 -14 -4 3 -8 1
-17 -5 -21 -7 -4 -11 11 -11 44 l0 51 -33 0 c-19 0 -36 -2 -38 -4z"/>
<path d="M2524 3493 c-4 -15 -11 -34 -17 -40 -5 -7 -7 -13 -3 -13 3 0 -2 -9
-11 -20 -21 -24 -33 -26 -33 -5 0 10 -10 15 -27 16 -16 0 -40 2 -55 4 -22 3
-28 0 -28 -15 0 -23 -16 -35 -23 -18 -3 7 -6 1 -6 -14 -1 -25 -5 -28 -36 -28
-23 0 -42 -8 -60 -26 -22 -22 -23 -25 -5 -19 14 4 20 2 20 -9 0 -22 -17 -28
-41 -15 -12 6 -19 7 -15 1 3 -5 -1 -13 -10 -16 -8 -3 -12 -11 -9 -17 8 -12
-27 -40 -60 -50 -13 -3 -19 -13 -18 -27 2 -15 -2 -20 -12 -16 -8 4 -15 1 -15
-5 0 -6 7 -11 15 -11 8 0 15 -5 15 -10 0 -9 -35 -9 -79 -1 -2 1 8 12 23 26 28
26 38 58 11 35 -9 -7 -13 -15 -10 -18 3 -3 -6 -13 -21 -22 -20 -14 -22 -19
-10 -23 10 -4 15 -18 14 -42 l-1 -37 -44 5 c-24 2 -46 0 -50 -6 -3 -6 -2 -7 4
-4 6 4 10 -20 9 -66 l-1 -72 -32 -3 -33 -3 0 -75 c0 -61 -3 -74 -16 -74 -13 0
-15 6 -9 28 6 26 6 26 -8 7 -9 -11 -13 -24 -10 -29 4 -5 2 -6 -3 -3 -6 3 -16
2 -24 -3 -10 -6 -13 -34 -12 -112 1 -68 -1 -98 -7 -88 -6 8 -13 11 -17 7 -11
-10 -13 -36 -14 -150 -4 -438 238 -815 650 -1015 138 -66 301 -107 510 -126
l45 -5 -38 14 c-77 29 -234 117 -317 179 -253 188 -409 448 -466 776 -18 107
-15 394 6 463 8 28 8 47 1 69 -9 25 -8 29 4 24 12 -4 15 4 15 37 0 24 6 49 13
56 10 11 10 13 0 7 -10 -5 -13 6 -13 43 l0 50 33 -1 c38 -1 60 9 51 23 -3 6 2
20 13 32 17 20 17 21 0 8 -17 -14 -18 -11 -15 35 3 43 6 49 27 52 14 2 21 0
17 -6 -4 -6 -1 -14 5 -18 8 -4 9 -3 5 4 -4 7 -2 12 3 12 6 0 11 7 11 15 0 8 6
15 13 15 7 0 8 3 2 8 -17 12 -17 42 0 42 8 0 15 -6 15 -12 0 -7 12 -1 26 14
23 22 27 36 28 85 l1 58 43 1 c24 1 42 -3 42 -10 0 -6 7 -3 14 6 7 10 16 16
20 13 3 -3 2 1 -4 7 -13 16 -13 28 1 28 5 0 7 -6 4 -12 -4 -7 1 -4 9 6 18 23
20 36 6 36 -5 0 -10 3 -10 8 0 4 25 7 56 5 43 -1 54 1 45 10 -6 6 -11 21 -11
34 0 18 -6 23 -24 23 -13 0 -31 3 -40 6 -11 4 -17 -2 -22 -23z"/>
<path d="M2825 2910 c-128 -14 -221 -67 -296 -169 -58 -79 -89 -167 -96 -277
-10 -144 39 -276 139 -375 99 -100 235 -149 413 -149 l99 0 -51 35 c-115 82
-210 245 -222 386 -18 211 42 385 176 510 l49 46 -75 0 c-42 -1 -103 -4 -136
-7z"/>
<path d="M3155 2438 c7 -18 57 -121 110 -228 54 -107 101 -206 107 -219 5 -14
12 -20 17 -15 12 13 191 463 191 480 0 12 -38 14 -219 14 l-220 0 14 -32z"/>
<path d="M3752 1823 c-5 -10 -32 -85 -60 -168 -28 -82 -69 -203 -92 -268 -22
-65 -40 -123 -40 -128 0 -5 175 -9 431 -9 l431 0 -30 53 c-16 28 -46 81 -67
117 -21 36 -49 85 -62 110 -14 25 -28 50 -33 55 -4 6 -19 30 -32 55 -59 106
-100 176 -110 188 -8 9 -54 12 -169 12 -141 0 -159 -2 -167 -17z"/>
<path d="M1520 750 l0 -210 35 0 35 0 0 210 0 210 -35 0 -35 0 0 -210z"/>
<path d="M1982 801 c3 -143 5 -162 24 -188 51 -69 128 -91 200 -57 70 33 100
136 61 215 -32 65 -133 100 -184 64 -24 -17 -35 -8 -33 28 1 12 2 39 1 60 -1
36 -2 37 -37 37 l-36 0 4 -159z m204 -45 c73 -62 -4 -180 -87 -135 -50 27 -53
104 -6 141 30 24 61 22 93 -6z"/>
<path d="M2684 947 c-2 -7 -3 -100 -2 -207 l3 -195 35 0 35 0 3 208 2 207 -35
0 c-20 0 -38 -6 -41 -13z"/>
<path d="M2970 900 c0 -47 -3 -60 -15 -60 -10 0 -15 -11 -15 -35 0 -23 5 -35
14 -35 9 0 15 -20 18 -70 8 -105 43 -146 137 -157 l51 -6 0 37 c0 34 -2 36
-34 36 -19 0 -44 8 -57 19 -20 16 -23 28 -24 77 l0 59 58 3 57 3 0 34 0 35
-60 0 -60 0 0 60 0 60 -35 0 -35 0 0 -60z"/>
<path d="M1235 921 c-79 -51 -105 -95 -105 -179 0 -97 55 -171 148 -198 59
-17 99 -13 150 18 32 19 32 20 32 99 l0 79 -35 0 -35 0 0 -59 c0 -64 -6 -71
-63 -71 -77 0 -135 74 -122 157 12 84 110 129 189 88 31 -16 32 -16 57 27 28
50 -150 81 -216 39z"/>
<path d="M1712 823 c-89 -58 -95 -171 -13 -247 43 -41 121 -48 171 -14 95 64
93 210 -2 268 -47 29 -105 26 -156 -7z m133 -69 c33 -36 33 -87 0 -119 -35
-35 -76 -33 -109 6 -34 40 -33 74 3 110 37 37 74 38 106 3z"/>
<path d="M2420 843 c-41 -16 -80 -58 -91 -96 -39 -145 87 -255 212 -185 l38
21 20 -24 20 -24 1 154 c0 154 0 154 -20 136 -20 -18 -22 -18 -59 3 -37 21
-89 27 -121 15z m98 -83 c29 -27 37 -64 22 -101 -23 -54 -84 -66 -125 -24 -73
72 28 194 103 125z"/>
<path d="M3575 831 c-60 -36 -70 -57 -70 -136 0 -64 3 -77 25 -100 59 -63 143
-74 203 -26 l36 28 -27 25 c-26 25 -27 25 -46 7 -11 -11 -31 -19 -44 -19 -28
0 -31 -7 44 91 23 30 48 60 57 68 25 20 21 28 -26 56 -52 30 -110 33 -152 6z"/>
<path d="M4580 843 c-23 -8 -70 -55 -86 -85 -18 -35 -18 -101 0 -137 23 -43
85 -81 135 -81 44 0 88 18 111 45 12 14 10 20 -12 42 l-26 25 -21 -21 c-29
-29 -76 -27 -106 4 -35 34 -33 78 4 116 35 34 72 38 101 9 25 -25 32 -25 53
-2 25 28 21 39 -26 67 -41 24 -92 31 -127 18z"/>
<path d="M4860 832 c-104 -52 -109 -210 -8 -272 40 -24 98 -26 143 -4 41 19
50 40 30 70 -19 29 -27 30 -50 4 -16 -18 -65 -29 -65 -14 0 3 29 40 65 82 36
41 65 84 65 94 0 23 -68 58 -112 58 -18 0 -49 -8 -68 -18z"/>
<path d="M2820 690 l0 -150 35 0 35 0 0 150 0 150 -35 0 -35 0 0 -150z"/>
<path d="M3253 830 c-23 -9 -53 -57 -53 -85 0 -9 7 -29 15 -45 17 -33 63 -50
133 -50 36 0 43 -3 40 -17 -3 -15 -17 -18 -96 -21 l-92 -3 0 -34 0 -35 89 0
c49 0 101 4 115 10 57 21 77 104 34 146 -17 18 -40 25 -93 31 -52 6 -70 12
-70 23 0 12 17 16 83 18 l82 3 0 34 0 35 -82 -1 c-46 0 -93 -4 -105 -9z"/>
<path d="M3818 733 c-2 -59 -1 -127 1 -151 3 -42 4 -43 35 -40 l31 3 3 95 c3
110 16 130 83 130 38 0 39 1 39 35 0 34 -1 35 -40 35 -22 0 -57 -7 -77 -15
-33 -14 -38 -14 -54 1 -17 15 -18 11 -21 -93z"/>
<path d="M4030 836 c0 -4 73 -198 96 -253 15 -38 21 -43 49 -43 36 0 41 8 80
120 13 36 32 87 44 113 12 27 21 53 21 58 0 5 -17 9 -39 9 -28 0 -40 -5 -44
-17 -24 -77 -55 -155 -62 -156 -6 -1 -62 145 -65 171 0 3 -80 2 -80 -2z"/>
<path d="M4360 690 l0 -150 35 0 35 0 0 150 0 150 -35 0 -35 0 0 -150z"/>
</g>
</svg>
